<?xml version='1.0' encoding='utf-8'?>
<svg xmlns="http://www.w3.org/2000/svg" width="425.18mm" height="425.18mm" version="1.1" viewBox="0 0 425.18 425.18"> <g transform="translate(107.68 -383.99)"> <g> <path d="m-107.68 383.99v425.18h425.18v-425.18z" fill="#42a19e" style="paint-order:fill markers stroke"/> <path d="m80.062 631.8c8.9888 0.96067 18.749 2.7048 29.859 6.1157 17.775 5.4574 39.002 15.181 53.895 25.053 2.3278 1.5431 4.5004 3.0898 6.4994 4.6329l-3.8901 37.078c-6.2155 2.359-13.946 4.4893-23.133 6.4015-24.274 5.0523-58.695 8.583-93.364 6.5018-34.669-2.0811-69.586-9.7739-89.963-17.9-20.377-8.1258-26.214-16.684-19.146-25.996 7.0673-9.312 27.038-19.377 43.565-26.718 16.527-7.3403 29.609-11.955 42.222-14.316 12.613-2.3615 24.754-2.4696 37.987-1.9282 4.9622 0.20303 10.078 0.49753 15.471 1.074z" fill="#488e61"/> <path d="m-19.498 630.54c-9.04 0.0175-18.929 0.73372-30.334 2.9667-12.733 2.493-27.351 6.8777-40.408 12.107v57.308c23.596 7.5085 57.264 14.539 91.761 16.078 34.697 1.5478 70.226-2.4598 91.34-8.415 21.114-5.9552 27.811-13.857 21.754-23.856-6.057-9.9986-24.868-22.093-40.539-31.117-15.671-9.0247-28.2-14.979-40.497-18.644-12.297-3.6647-24.361-5.039-37.578-5.8813-4.9563-0.31585-10.075-0.55675-15.499-0.54622z" fill="#4d7751"/> <path d="m141.01 631.94c-0.6851-3e-3 -1.3694-2e-3 -2.0526 2e-3 -21.861 0.11304-44.957 2.6047-72.805 10.948-33.651 10.082-63.706 26.13-77.187 30.878-13.481 4.7479-28.055 8.5916-45.665 11.757-11.035 1.9834-23.258 3.7022-33.539 6.3216v31.449h366.68v-26.928c-16.556-19.658-43.233-35.026-67.891-48.013-24.12-12.703-46.301-16.333-67.539-16.415z" fill="#456847"/> <path d="m219.43 624.17c-36.394 0.19876-67.301 14.275-93.767 24.517-26.466 10.242-46.419 15.848-62.542 19.055-16.123 3.2076-28.008 3.9021-41.733 1.3472-13.726-2.5549-29.291-8.3592-53.175-18.917-17.516-7.7425-53.593-18.099-75.898-24.513v183.51h425.18v-170.54c-24.241-7.3724-71.8-14.608-98.065-14.464z" fill="#488e61"/> <circle cx="150.27" cy="545.6" r="31.407" fill="#69b7b6" style="paint-order:fill markers stroke"/> <path d="m150.1 514.19a31.407 31.407 0 0 0-31.237 31.406 31.407 31.407 0 0 0 31.406 31.406 31.407 31.407 0 0 0 3.1875-0.16233 78.769 88.138 0 0 0 5.4002-32.071 78.769 88.138 0 0 0-4.8192-30.353 31.407 31.407 0 0 0-3.7686-0.22677 31.407 31.407 0 0 0-0.16974 0z" fill="#e7f6f6" style="paint-order:fill markers stroke"/> <rect transform="rotate(45)" x="452.85" y="316.34" width="1.4241" height="1.4241" fill="#c3e2e2" style="paint-order:fill markers stroke"/> <rect transform="rotate(45)" x="391.74" y="416.72" width="1.4241" height="1.4241" fill="#c3e2e2" style="paint-order:fill markers stroke"/> <rect transform="rotate(45)" x="379.33" y="358.85" width="1.4241" height="1.4241" fill="#c3e2e2" style="paint-order:fill markers stroke"/> <rect transform="rotate(45)" x="379.38" y="372.72" width="1.4241" height="1.4241" fill="#c3e2e2" style="paint-order:fill markers stroke"/> <rect transform="rotate(45)" x="413.06" y="364.86" width="1.4241" height="1.4241" fill="#c3e2e2" style="paint-order:fill markers stroke"/> <rect transform="rotate(45)" x="391.17" y="239.32" width="1.4241" height="1.4241" fill="#c3e2e2" style="paint-order:fill markers stroke"/> <rect transform="rotate(45)" x="419.6" y="179.08" width="1.4241" height="1.4241" fill="#c3e2e2" style="paint-order:fill markers stroke"/> <rect transform="rotate(45)" x="352.06" y="227.16" width="1.4241" height="1.4241" fill="#c3e2e2" style="paint-order:fill markers stroke"/> <rect transform="rotate(45)" x="300.8" y="295.64" width="1.4241" height="1.4241" fill="#c3e2e2" style="paint-order:fill markers stroke"/> <rect transform="rotate(45)" x="264.69" y="310.04" width="1.4241" height="1.4241" fill="#c3e2e2" style="paint-order:fill markers stroke"/> <rect transform="rotate(45)" x="363.85" y="262.15" width="1.4241" height="1.4241" fill="#c3e2e2" style="paint-order:fill markers stroke"/> <rect transform="rotate(45)" x="361.79" y="291.15" width="1.4241" height="1.4241" fill="#c3e2e2" style="paint-order:fill markers stroke"/> <rect transform="rotate(45)" x="239.81" y="344.65" width="1.4241" height="1.4241" fill="#c3e2e2" style="paint-order:fill markers stroke"/> <rect transform="rotate(45)" x="329.61" y="285.91" width="1.4241" height="1.4241" fill="#c3e2e2" style="paint-order:fill markers stroke"/> <rect transform="rotate(45)" x="315.77" y="248.49" width="1.4241" height="1.4241" fill="#c3e2e2" style="paint-order:fill markers stroke"/> <rect transform="rotate(45)" x="477.6" y="112.1" width="1.4241" height="1.4241" fill="#c3e2e2" style="paint-order:fill markers stroke"/> <rect transform="rotate(45)" x="410.25" y="188.06" width="1.4241" height="1.4241" fill="#c3e2e2" style="paint-order:fill markers stroke"/> <rect transform="rotate(45)" x="501.74" y="130.62" width="1.4241" height="1.4241" fill="#c3e2e2" style="paint-order:fill markers stroke"/> <rect transform="rotate(45)" x="449.35" y="190.49" width="1.4241" height="1.4241" fill="#c3e2e2" style="paint-order:fill markers stroke"/> <rect transform="rotate(45)" x="452.53" y="151.02" width="1.4241" height="1.4241" fill="#c3e2e2" style="paint-order:fill markers stroke"/> <rect transform="rotate(45)" x="416.8" y="211.45" width="1.4241" height="1.4241" fill="#c3e2e2" style="paint-order:fill markers stroke"/> <rect transform="rotate(45)" x="435.51" y="217.43" width="1.4241" height="1.4241" fill="#c3e2e2" style="paint-order:fill markers stroke"/> <rect transform="rotate(45)" x="388.92" y="201.9" width="1.4241" height="1.4241" fill="#c3e2e2" style="paint-order:fill markers stroke"/> <rect transform="rotate(45)" x="411.37" y="157" width="1.4241" height="1.4241" fill="#c3e2e2" style="paint-order:fill markers stroke"/> <rect transform="rotate(45)" x="399.77" y="305.55" width="1.4241" height="1.4241" fill="#c3e2e2" style="paint-order:fill markers stroke"/> <rect transform="rotate(45)" x="378.82" y="311.54" width="1.4241" height="1.4241" fill="#c3e2e2" style="paint-order:fill markers stroke"/> <rect transform="rotate(45)" x="396.59" y="332.31" width="1.4241" height="1.4241" fill="#c3e2e2" style="paint-order:fill markers stroke"/> <rect transform="rotate(45)" x="525.12" y="145.78" width="1.4241" height="1.4241" fill="#c3e2e2" style="paint-order:fill markers stroke"/> <rect transform="rotate(45)" x="522.5" y="94.89" width="1.4241" height="1.4241" fill="#c3e2e2" style="paint-order:fill markers stroke"/> <rect transform="rotate(45)" x="494.25" y="160.56" width="1.4241" height="1.4241" fill="#c3e2e2" style="paint-order:fill markers stroke"/> <rect transform="rotate(45)" x="467.12" y="140.91" width="1.4241" height="1.4241" fill="#c3e2e2" style="paint-order:fill markers stroke"/> <rect transform="rotate(45)" x="466.38" y="113.6" width="1.4241" height="1.4241" fill="#c3e2e2" style="paint-order:fill markers stroke"/> <rect transform="rotate(45)" x="508.1" y="79.362" width="1.4241" height="1.4241" fill="#c3e2e2" style="paint-order:fill markers stroke"/> <rect transform="rotate(45)" x="573.39" y="159.62" width="1.4241" height="1.4241" fill="#c3e2e2" style="paint-order:fill markers stroke"/> <rect transform="rotate(45)" x="623.72" y="185.25" width="1.4241" height="1.4241" fill="#c3e2e2" style="paint-order:fill markers stroke"/> <rect transform="rotate(45)" x="595.84" y="194.8" width="1.4241" height="1.4241" fill="#c3e2e2" style="paint-order:fill markers stroke"/> <rect transform="rotate(45)" x="361.61" y="491.14" width="1.4241" height="1.4241" fill="#c3e2e2" style="paint-order:fill markers stroke"/> <rect transform="rotate(45)" x="333.92" y="472.81" width="1.4241" height="1.4241" fill="#c3e2e2" style="paint-order:fill markers stroke"/> <rect transform="rotate(45)" x="325.02" y="330.41" width="1.4241" height="1.4241" fill="#c3e2e2" style="paint-order:fill markers stroke"/> <rect transform="rotate(45)" x="339.35" y="413.52" width="1.4241" height="1.4241" fill="#c3e2e2" style="paint-order:fill markers stroke"/> <rect transform="rotate(45)" x="495.97" y="205.58" width="1.4241" height="1.4241" fill="#c3e2e2" style="paint-order:fill markers stroke"/> <rect transform="rotate(45)" x="544.08" y="187.41" width="1.4241" height="1.4241" fill="#c3e2e2" style="paint-order:fill markers stroke"/> <rect transform="rotate(45)" x="506.66" y="184.2" width="1.4241" height="1.4241" fill="#c3e2e2" style="paint-order:fill markers stroke"/> <rect transform="rotate(45)" x="567.6" y="180.99" width="1.4241" height="1.4241" fill="#c3e2e2" style="paint-order:fill markers stroke"/> <rect transform="rotate(45)" x="549.43" y="207.72" width="1.4241" height="1.4241" fill="#c3e2e2" style="paint-order:fill markers stroke"/> <rect transform="rotate(45)" x="520.03" y="189.01" width="1.4241" height="1.4241" fill="#c3e2e2" style="paint-order:fill markers stroke"/> <rect transform="rotate(45)" x="453.74" y="338.68" width="1.4241" height="1.4241" fill="#c3e2e2" style="paint-order:fill markers stroke"/> <rect transform="rotate(45)" x="374.81" y="439.06" width="1.4241" height="1.4241" fill="#c3e2e2" style="paint-order:fill markers stroke"/> <rect transform="rotate(45)" x="386.52" y="470.44" width="1.4241" height="1.4241" fill="#c3e2e2" style="paint-order:fill markers stroke"/> <rect transform="rotate(45)" x="429.99" y="445.49" width="1.4241" height="1.4241" fill="#c3e2e2" style="paint-order:fill markers stroke"/> <rect transform="rotate(45)" x="475.16" y="394.27" width="1.4241" height="1.4241" fill="#c3e2e2" style="paint-order:fill markers stroke"/> <rect transform="rotate(45)" x="466.66" y="417.9" width="1.4241" height="1.4241" fill="#c3e2e2" style="paint-order:fill markers stroke"/> <rect transform="rotate(45)" x="521.65" y="334.17" width="1.4241" height="1.4241" fill="#c3e2e2" style="paint-order:fill markers stroke"/> <rect transform="rotate(45)" x="547.73" y="317.92" width="1.4241" height="1.4241" fill="#c3e2e2" style="paint-order:fill markers stroke"/> <rect transform="rotate(45)" x="544.71" y="260.47" width="1.4241" height="1.4241" fill="#c3e2e2" style="paint-order:fill markers stroke"/> <rect transform="rotate(45)" x="504.26" y="327.37" width="1.4241" height="1.4241" fill="#c3e2e2" style="paint-order:fill markers stroke"/> <rect transform="rotate(45)" x="472.14" y="324.73" width="1.4241" height="1.4241" fill="#c3e2e2" style="paint-order:fill markers stroke"/> <rect transform="rotate(45)" x="521.65" y="350.05" width="1.4241" height="1.4241" fill="#c3e2e2" style="paint-order:fill markers stroke"/> <rect transform="rotate(45)" x="408.26" y="278.23" width="1.4241" height="1.4241" fill="#c3e2e2" style="paint-order:fill markers stroke"/> <rect transform="rotate(45)" x="459.28" y="221.92" width="1.4241" height="1.4241" fill="#c3e2e2" style="paint-order:fill markers stroke"/> <rect transform="rotate(45)" x="425.46" y="260.28" width="1.4241" height="1.4241" fill="#c3e2e2" style="paint-order:fill markers stroke"/> <rect transform="rotate(45)" x="435.85" y="255.18" width="1.4241" height="1.4241" fill="#c3e2e2" style="paint-order:fill markers stroke"/> <rect transform="rotate(45)" x="588.17" y="223.05" width="1.4241" height="1.4241" fill="#c3e2e2" style="paint-order:fill markers stroke"/> <rect transform="rotate(45)" x="624.46" y="226.07" width="1.4241" height="1.4241" fill="#c3e2e2" style="paint-order:fill markers stroke"/> <rect transform="rotate(45)" x="596.11" y="258.96" width="1.4241" height="1.4241" fill="#c3e2e2" style="paint-order:fill markers stroke"/> <rect transform="rotate(45)" x="572.68" y="254.42" width="1.4241" height="1.4241" fill="#c3e2e2" style="paint-order:fill markers stroke"/> <rect transform="rotate(45)" x="580.24" y="283.15" width="1.4241" height="1.4241" fill="#c3e2e2" style="paint-order:fill markers stroke"/> <rect transform="rotate(45)" x="540.17" y="153.12" width="1.4241" height="1.4241" fill="#c3e2e2" style="paint-order:fill markers stroke"/> <rect transform="rotate(45)" x="530.72" y="168.62" width="1.4241" height="1.4241" fill="#c3e2e2" style="paint-order:fill markers stroke"/> <rect transform="rotate(45)" x="276.48" y="376.09" width="1.4241" height="1.4241" fill="#c3e2e2" style="paint-order:fill markers stroke"/> <rect transform="rotate(45)" x="313.83" y="369.82" width="1.4241" height="1.4241" fill="#c3e2e2" style="paint-order:fill markers stroke"/> <rect transform="rotate(45)" x="291.85" y="339.61" width="1.4241" height="1.4241" fill="#c3e2e2" style="paint-order:fill markers stroke"/> <rect transform="rotate(45)" x="301.58" y="408.17" width="1.4241" height="1.4241" fill="#c3e2e2" style="paint-order:fill markers stroke"/> <rect transform="rotate(45)" x="364.41" y="462.69" width="1.4241" height="1.4241" fill="#c3e2e2" style="paint-order:fill markers stroke"/> <rect transform="rotate(45)" x="312.32" y="432.81" width="1.4241" height="1.4241" fill="#c3e2e2" style="paint-order:fill markers stroke"/> <rect transform="rotate(45)" x="331.17" y="443.43" width="1.4241" height="1.4241" fill="#c3e2e2" style="paint-order:fill markers stroke"/> <rect transform="rotate(45)" x="431.83" y="341.35" width="1.4241" height="1.4241" fill="#c3e2e2" style="paint-order:fill markers stroke"/> <rect transform="rotate(45)" x="347.32" y="339.17" width="1.4241" height="1.4241" fill="#c3e2e2" style="paint-order:fill markers stroke"/> <path transform="translate(0 451.15)" d="m-13.595 136.51c-3.5813-0.91286-8.7076-2.5982-13.483-2.7387s-9.1992 1.2639-12.64 2.247c-3.4409 0.98313-5.8987 1.5449-8.532 0.0703-2.6334-1.4746-5.4422-4.9856-5.4422-7.4084-2e-5 -2.4228 2.8088-3.757 5.056-4.4241 2.2472-0.66709 3.9325-0.66709 5.372-1.4395 1.4395-0.77244 2.6332-2.3173 3.195-4.1079 0.56179-1.7906 0.49157-3.827 1.7556-5.5125 1.2641-1.6855 3.8622-3.0197 6.7766-2.6684s6.1445 2.3876 8.0756 3.8975c1.9311 1.5098 2.5631 2.4929 4.6698 2.6332 2.1067 0.1403 5.688-0.56192 8.3565-0.8779 2.6685-0.31598 4.424-0.24575 6.1445 0.87794s3.4058 3.3005 4.7049 5.3019c1.2991 2.0014 2.212 3.8271 4.4942 4.2132 2.2823 0.38606 5.9338-0.66725 8.1458-0.1053 2.212 0.56195 2.9844 2.7388 2.0363 5.2316s-3.6165 5.3016-7.4084 6.355c-3.7919 1.0533-8.7074 0.35113-12.183-0.0702-3.476-0.42134-5.5125-0.56179-9.0938-1.4746z" fill="#94d6d5"/> <path transform="translate(0 451.15)" d="m71.239 136.38c-1.9501 1.053-4.5241 2.847-7.1371 3.3931-2.6129 0.54606-5.2649-0.15594-7.176-1.4429-1.9111-1.2869-3.0811-3.1589-6.0061-3.7051-2.9251-0.54615-7.605 0.23385-11.388 0.46788-3.783 0.23403-6.669-0.078-7.3712-1.365-0.70214-1.287 0.77985-3.549 3.393-5.0311 2.6132-1.4821 6.3571-2.1841 9.7025-3.9907 3.3453-1.8066 6.1993-4.6262 9.6315-5.5232 3.4322-0.89696 7.3958 0.17444 10.275 1.6462 2.8788 1.4718 4.6728 3.3438 7.7539 4.0457 3.0811 0.70187 7.449 0.23388 9.906 1.2091 2.457 0.97518 3.003 3.3932 1.521 5.07-1.482 1.6769-4.992 2.6129-7.41 3.2369-2.418 0.62401-3.744 0.93601-5.6941 1.989z" fill="#94d6d5"/> <path transform="translate(0 451.15)" d="m233.97 120.28c0.8541-0.1363 2.5625-0.40895 4.6776-1.9013 2.1151-1.4924 5.5028-5.1362 8.4197-5.3828 2.9169-0.24662 5.7963 2.4382 8.751 3.9119s8.494 1.9529 11.306 4.132 4.1496 6.1668 3.5179 8.5874c-0.63164 2.4206-3.2328 3.2736-5.2194 5.2331-1.9866 1.9594-3.3587 5.0252-6.2186 5.9743-2.8598 0.94905-7.2069-0.21859-9.689-1.5332-2.482-1.3146-3.099-2.7753-4.926-2.4625-1.827 0.31288-4.8625 2.3996-8.0231 3.1033s-6.4429 0.0236-9.0058-0.93641c-2.5628-0.96005-4.4023-2.1988-7.7499-2.3432-3.3476-0.14436-8.2019 0.80637-10.78-8e-3 -2.5783-0.81458-2.8805-3.3942-1.9144-5.5739 0.96606-2.1797 3.2003-3.9597 6.0253-5.1235s4.7334-1.4699 7.2217-2.6882c2.4883-1.2183 4.8026-3.2279 6.899-3.8352 2.0965-0.60734 3.9752 0.18776 4.9148 0.58538s0.93952 0.39741 1.7936 0.26111z" fill="#94d6d5"/> <path d="m-32.614 561.62c-0.05241 7.9e-4 -0.10345 6e-3 -0.15555 8e-3 0.01355 5e-3 0.0295 0.0104 0.04289 0.0155 1.1654 0.44103 1.7322 0.81893 3.0236 2.0159 1.2914 1.197 3.3076 3.2131 4.7408 4.2525 1.4332 1.0393 2.2834 1.1021 4.5827 0.15709 0.08208-0.0337 0.17842-0.0775 0.26407-0.11368-1.1706-0.40343-1.8887-1.2424-3.3466-2.3823-1.9311-1.5098-5.1616-3.5462-8.076-3.8974-0.36429-0.0439-0.72348-0.0615-1.0759-0.0553zm27.689 6.2203c0.013272 0.0326 0.029942 0.071 0.042891 0.10284 0.40948 1.008 0.66116 1.6377 0.91312 2.4252 0.25196 0.78745 0.51958 1.7912 0.63769 2.6122 0.11811 0.82102 0.11806 1.5769 0.55914 2.5533 0.44108 0.97646 1.3232 2.1737 2.4257 3.0241 1.1025 0.85037 2.4256 1.354 4.2525 1.3854 1.8268 0.0314 4.1575-0.40934 5.7009-0.31471 1.5435 0.0946 2.2995 0.72452 2.7404 1.449 0.44086 0.72448 0.56686 1.5434 0.47232 2.6458-0.07495 0.87395-0.28697 1.9243-0.40359 2.8722 1.2779-1.1527 2.1953-2.4902 2.6737-3.7481 0.94808-2.4928 0.17594-4.6698-2.0361-5.2317-2.212-0.56195-5.8635 0.49149-8.1458 0.10542-2.2823-0.38607-3.1952-2.2118-4.4943-4.2132s-2.9847-4.1783-4.7051-5.302c-0.21015-0.13726-0.42076-0.25883-0.63355-0.36587z" fill="#c1efef"/> <path d="m57.536 570c-0.89922 3e-3 -1.7904 0.10391-2.6484 0.32815-0.92866 0.24269-1.8142 0.62897-2.6794 1.095 1.1816 0.27783 2.2988 0.4649 3.4101 0.56741 2.023 0.1866 4.206 0.14241 6.1883 0.43201 1.9823 0.2896 3.7637 0.91305 5.3004 1.804 1.5368 0.89097 2.8288 2.0491 4.1651 2.7171 1.3364 0.66808 2.717 0.84657 4.3429 1.0248 1.6259 0.17817 3.497 0.35588 4.8111 0.82372 1.3141 0.46784 2.0714 1.2251 2.4722 2.4055 0.18683 0.55028 0.29532 1.1988 0.39274 1.9849 0.40993-0.26949 0.76872-0.56299 1.0521-0.88367 1.482-1.6769 0.93561-4.0948-1.5214-5.07-2.457-0.97518-6.8248-0.50736-9.9059-1.2092-3.0811-0.70187-4.8752-2.5739-7.754-4.0458-2.1591-1.1039-4.9282-1.9821-7.6259-1.974z" fill="#c1efef"/> <path d="m247.34 564.13c-0.0911 2e-3 -0.18222 7e-3 -0.27337 0.0145-2.9169 0.24662-6.3046 3.8907-8.4196 5.3831s-3.8237 1.7649-4.6778 1.9012c-0.85409 0.1363-0.85414 0.13665-1.7937-0.26097s-2.818-1.1928-4.9144-0.58549c-2.0965 0.60734-4.411 2.6172-6.8993 3.8354s-4.3968 1.5238-7.2218 2.6877-5.0589 2.944-6.025 5.1237c-0.86126 1.9432-0.71283 4.2028 1.156 5.2477 0.0638-0.58362 0.14239-1.1311 0.23306-1.6175 0.61316-3.289 1.7036-4.0611 3.3073-4.7961 1.6037-0.73501 3.7419-1.4477 5.7242-1.804 1.9823-0.35633 3.8082-0.35644 5.1222-0.62373 1.314-0.26729 2.1161-0.80134 2.8288-1.5586 0.71268-0.75722 1.3361-1.7372 2.2939-2.45 0.95782-0.71278 2.2496-1.1585 3.6194-1.3255 1.3698-0.16701 2.8176-0.0557 4.7553-0.32298 1.9377-0.26731 4.3656-0.91336 6.2141-1.8154 1.8486-0.90203 3.1181-2.0601 4.254-3.0401 1.1359-0.98 2.1382-1.7814 2.8184-2.235 0.65975-0.43991 1.0568-0.56298 1.6795-0.60048-1.2601-0.68655-2.5175-1.1868-3.7812-1.1576z" fill="#c1efef"/> <path d="m182.6 629.97c-0.17219 0.1612-2.1841 0.61137-1.9315 0.73615 0.12968 0.0641 0.97391-0.38967 1.5274-0.28106 0.25218 0.0495-0.56485 1.1547-0.42495 1.3488 0.11427 0.15852 0.47455-0.48489 0.81995-0.62591 0.0455-0.0187 0.22905 0.0617 0.40783 0.41351 0.26086 0.51327 0.60878 1.4244 0.71952 1.8144 0.18666 0.65732 0.24195 1.0272 0.1103 1.84-0.0976 0.60222-0.26324 0.56464-0.52536 0.63519-0.55812 0.14989-0.89911 0.57678-1.1627 0.97365-0.26357 0.39683-0.40439 1.1962-0.50685 1.3888-0.0561 0.10546-0.83555 0.26954-1.3692 0.61538-0.44109 0.2859-0.6507 0.7489-0.7087 0.93577-0.12817 0.41292-0.0306 1.0103 0.12501 1.4184 0.15565 0.40805 0.36943 0.62581 0.40456 0.94184 0.0352 0.31609-0.10898 0.72953-0.1387 1.1173-0.0298 0.38785 0.0549 0.74816 0.23124 1.0412 0.17622 0.29306 0.44371 0.51764 0.69408 0.60541 0.25034 0.0879 0.48388 0.0387 0.60893 0.15493 0.12502 0.1163 0.1418 0.39828 0.35958 0.66231 0.21778 0.26404 0.90368 0.36769 1.3689 0.38189 0.46523 0.0142 1.3443-0.29504 1.6242-0.53153 0.27999-0.23653 0.36194-0.33304 0.49183-0.35658 0.12991-0.0239 0.30765 0.0253 0.73048 0.0815 0.42284 0.0565 1.4588-0.0602 1.9536-0.28553 0.49483-0.22532 0.87383-0.88748 1.1182-1.2895 0.24436-0.40198 1.216-0.77796 1.6955-0.99516 0.47943-0.21723 2.2057-0.58761 2.7602-0.78896 0.55448-0.20143 1.3065-0.62428 1.382-1.0137 0.0755-0.38942-0.0574-0.75212 0.0554-1.0522 0.11258-0.29997 0.70392-0.53762 0.89589-0.89764 0.19195-0.36 0.21844-0.84242 0.0991-1.2494-0.11938-0.40705-0.61816-0.73929-0.86818-0.91469-0.11796-0.0828-0.48186-0.15596-0.78501-0.32382-0.33936-0.18791-0.61756-0.4735-0.68817-0.60562-0.13369-0.25012-0.32718-0.50899-0.58915-0.61133-0.26379-0.10305-1.3317 2e-3 -1.6084-0.1508-0.23082-0.12727-0.3949-0.59258-0.66369-0.90719-0.21332-0.24969-0.71859-0.46894-1.1069-0.56739-0.38833-0.0985-1.5037-0.10795-2.0842 0.1104-0.52606 0.19791-1.0836 0.58366-1.2721 0.38464-0.43814-0.46254-0.72979-1.1788-0.96427-1.8579-0.0599-0.1736-0.22923-0.55794-0.28692-0.73323-0.0542-0.16465-0.34241-0.6332-0.35743-0.90159-9e-3 -0.16893-0.28636-0.55405-0.047-0.64449 0.51473-0.19452 1.7153 0.0884 1.6551-0.0873-0.0881-0.25728-2.78-0.58979-2.9316-0.51349-0.15171 0.0768-0.64562 0.42291-0.81781 0.58415z" fill="#407553"/> <path transform="translate(0 451.15)" d="m181.91 180.14c-0.0525 0.12961-0.15709 0.38743-0.19622 0.53591-0.0391 0.14849-0.0126 0.18577 0.0871 0.0819 0.0997-0.10385 0.27193-0.34745 0.41612-0.562 0.1442-0.21454 0.25972-0.39915 0.46167-0.62223s0.49039-0.48465 0.70388-0.49993c0.2135-0.0153 0.35202 0.21554 0.53966 0.4149s0.42478 0.36802 0.59476 0.58308 0.27225 0.47502 0.35146 0.5208c0.0792 0.0458 0.13491-0.12328-0.0236-0.51579-0.15847-0.39251-0.5322-1.0101-0.55745-1.2912-0.0253-0.28105 0.29778-0.22577 0.55242-0.2007 0.25464 0.0251 0.44191 0.0201 0.64512 0.0386s0.42082 0.06 0.5863 0.11135c0.16548 0.0513 0.27691 0.11161 0.31323 0.1004 0.0363-0.0112-3e-3 -0.0939-0.0932-0.1823-0.0906-0.0884-0.23236-0.18166-0.45051-0.24775-0.21816-0.0661-0.51276-0.10492-0.8124-0.26481-0.29965-0.15988-0.60493-0.44146-0.83362-0.93803-0.2287-0.49658-0.38071-1.2083-0.4452-1.9513-0.0645-0.74298-0.0413-1.5171 0.10488-2.1797 0.14624-0.66268 0.41561-1.2137 0.74173-1.7548s0.70893-1.0721 1.017-1.4719 0.54125-0.66821 0.46098-0.81658c-0.0803-0.14838-0.47434-0.17671-0.7296-0.0667-0.25527 0.11004-0.38275 0.38296-0.54432 0.67436s-0.363 0.61363-0.59873 0.64433c-0.23574 0.0307-0.50614-0.23038-0.69403-0.51125-0.18788-0.28088-0.29301-0.58156-0.41082-0.6039-0.1178-0.0223-0.2828 0.30226-0.41944 0.54991-0.13665 0.24766-0.26229 0.45253-0.56669 0.50194-0.30441 0.0494-0.78798-0.0567-1.0688-0.065-0.28087-8e-3 -0.3586 0.0811-0.27894 0.21574 0.0797 0.1346 0.31632 0.31403 0.44132 0.50131 0.12501 0.18729 0.13871 0.38239-0.37282 0.47418-0.51154 0.0918-1.5486 0.0806-2.0763 0.14583-0.52776 0.0652-0.54583 0.20653-0.36859 0.33405s0.54935 0.24143 0.87372 0.27457c0.32437 0.0332 0.60109-0.0143 0.8637 0.0201s0.5355 0.16187 0.80389 0.39517 0.54476 0.57812 0.80387 1.0486c0.2591 0.47049 0.50136 1.0671 0.61042 1.7638 0.10907 0.69669 0.0851 1.4913-0.0452 2.0197-0.13028 0.52844-0.36617 0.78706-0.59687 1.0402-0.2307 0.25317-0.45623 0.50091-0.67549 0.68105-0.21926 0.18013-0.43182 0.29223-0.55332 0.38891-0.1215 0.0967-0.15192 0.17793 0.22786 0.0282 0.37977-0.14975 1.1694-0.53017 1.4484-0.48065 0.27897 0.0495 0.0475 0.52813-0.0686 0.76805-0.11605 0.23993-0.1161 0.23993-0.16866 0.36955z" fill="#554e3d"/> <path transform="translate(0 451.15)" d="m181.89 172.38c-0.28376 0.20476-0.85134 0.61431-1.5714 0.78986-0.72002 0.17554-1.5926 0.11695-2.0938-0.0942-0.50123-0.2111-0.63089-0.57501-0.84472-0.69162-0.21383-0.11662-0.51189 0.0144-0.9216 0.0754s-0.93108 0.052-1.2836-0.249c-0.35248-0.30099-0.53552-0.89396-0.55724-1.3487-0.0217-0.45471 0.11801-0.77012 2e-3 -1.0747-0.11565-0.30459-0.48653-0.59735-0.7127-0.93053-0.22616-0.33317-0.30628-0.70527-0.2473-1.0677 0.059-0.36241 0.25726-0.71381 0.50356-0.93238 0.2463-0.21856 0.54074-0.30447 0.62792-0.47895 0.0872-0.17448-0.0329-0.43772 0.0886-0.79712 0.12146-0.3594 0.48462-0.81439 1.016-1.0862 0.53132-0.27185 1.2305-0.36047 1.6715-0.30311 0.44094 0.0574 0.62368 0.26037 0.78563 0.20927 0.16194-0.0511 0.30336-0.35609 0.76485-0.64223s1.2428-0.55327 1.9268-0.62567 1.2706 0.0498 1.7521 0.27624 0.85816 0.55698 1.5204 0.48588c0.66219-0.0711 1.6091-0.54325 2.3502-0.67067 0.7411-0.12741 1.2761 0.0899 1.5561 0.39903 0.27999 0.30911 0.30567 0.71016 0.58435 0.918 0.27869 0.20783 0.81024 0.22293 1.2104 0.44067 0.40014 0.21775 0.66934 0.638 0.73246 1.0716 0.0631 0.43355-0.0794 0.88095-0.28199 1.1784-0.20257 0.2974-0.46547 0.44518-0.56506 0.66221-0.0996 0.21703-0.0359 0.50318-0.0669 0.80319s-0.15649 0.61436-0.44767 0.81837c-0.29117 0.20401-0.7484 0.29791-0.90522 0.56102-0.15683 0.26311-0.0132 0.6952-0.0105 1.039 3e-3 0.34384-0.13531 0.59991-0.53597 0.90495s-1.064 0.65915-1.8436 0.78557c-0.77969 0.12641-1.6755 0.0249-2.348-0.11809-0.67253-0.14298-1.1221-0.32765-1.3471-0.42003-0.22493-0.0924-0.22492-0.0925-0.50867 0.11225z" fill="#3b6b35"/> <path transform="translate(0 451.15)" d="m181.89 172.38c-0.28376 0.20476-0.85134 0.61431-1.5714 0.78986-0.72002 0.17554-1.5926 0.11695-2.0938-0.0942-0.50123-0.2111-0.63089-0.57501-0.84472-0.69162-0.21383-0.11662-0.51189 0.0144-0.9216 0.0754s-0.93108 0.052-1.2836-0.249c-0.35248-0.30099-0.53552-0.89396-0.55724-1.3487-0.0217-0.45471 0.11801-0.77012 2e-3 -1.0747-0.11565-0.30459-0.48653-0.59735-0.7127-0.93053-0.22616-0.33317-0.30628-0.70527-0.2473-1.0677 0.059-0.36241 0.25726-0.71381 0.50356-0.93238 0.2463-0.21856 0.54074-0.30447 0.62792-0.47895 0.0872-0.17448-0.0329-0.43772 0.0886-0.79712 0.12146-0.3594 0.48462-0.81439 1.016-1.0862 0.53132-0.27185 1.2305-0.36047 1.6715-0.30311 0.44094 0.0574 0.62368 0.26037 0.78563 0.20927 0.16194-0.0511 0.30336-0.35609 0.76485-0.64223s1.2428-0.55327 1.9268-0.62567 1.2706 0.0498 1.7521 0.27624 0.85816 0.55698 1.5204 0.48588c0.66219-0.0711 1.6091-0.54325 2.3502-0.67067 0.7411-0.12741 1.2761 0.0899 1.5561 0.39903 0.27999 0.30911 0.30567 0.71016 0.58435 0.918 0.27869 0.20783 0.81024 0.22293 1.2104 0.44067 0.40014 0.21775 0.66934 0.638 0.73246 1.0716 0.0631 0.43355-0.0794 0.88095-0.28199 1.1784-0.20257 0.2974-0.46547 0.44518-0.56506 0.66221-0.0996 0.21703-0.0359 0.50318-0.0669 0.80319s-0.15649 0.61436-0.44767 0.81837c-0.29117 0.20401-0.7484 0.29791-0.90522 0.56102-0.15683 0.26311-0.0132 0.6952-0.0105 1.039 3e-3 0.34384-0.13531 0.59991-0.53597 0.90495s-1.064 0.65915-1.8436 0.78557c-0.77969 0.12641-1.6755 0.0249-2.348-0.11809-0.67253-0.14298-1.1221-0.32765-1.3471-0.42003-0.22493-0.0924-0.22492-0.0925-0.50867 0.11225z" fill="#3b6b35"/> </g> </g> </svg>